<svg width="24" height="24" viewBox="0 0 24 24" fill="none" xmlns="http://www.w3.org/2000/svg">
<g clip-path="url(#clip0_1_656)">
<path fill-rule="evenodd" clip-rule="evenodd" d="M12 -0.000976562C5.241 -0.000976562 0 4.95202 0 11.639C0 15.137 1.434 18.161 3.768 20.249C3.963 20.423 4.083 20.669 4.089 20.933L4.155 23.069C4.176 23.75 4.878 24.194 5.502 23.918L7.884 22.868C8.085 22.778 8.313 22.763 8.526 22.82C9.621 23.12 10.785 23.282 12 23.282C18.759 23.282 24 18.329 24 11.642C24 4.95502 18.759 -0.000976562 12 -0.000976562Z" fill="#1D1F42"/>
<path fill-rule="evenodd" clip-rule="evenodd" d="M4.79413 15.0439L8.31913 9.45187C8.88012 8.56087 10.0801 8.34187 10.9231 8.97187L13.7281 11.0749C13.9861 11.2669 14.3401 11.2669 14.5951 11.0719L18.3811 8.19787C18.8851 7.81387 19.5451 8.41987 19.2091 8.95687L15.6811 14.5459C15.1201 15.4369 13.9201 15.6559 13.0771 15.0259L10.2721 12.9229C10.0141 12.7309 9.66012 12.7309 9.40512 12.9259L5.61913 15.7999C5.11513 16.1839 4.45513 15.5809 4.79413 15.0439Z" fill="white"/>
</g>
<defs>
<clipPath id="clip0_1_656">
<rect width="24" height="24" rx="8.72366" fill="white"/>
</clipPath>
</defs>
</svg>
