<svg width="24" height="24" viewBox="0 0 24 24" fill="none" xmlns="http://www.w3.org/2000/svg">
<g clip-path="url(#clip0_1_659)">
<path fill-rule="evenodd" clip-rule="evenodd" d="M23.518 12.2724C23.518 11.4215 23.4417 10.6033 23.2999 9.81787H11.998V14.4597H18.4562C18.178 15.9597 17.3326 17.2306 16.0617 18.0815V21.0924H19.9399C22.209 19.0033 23.518 15.927 23.518 12.2724Z" fill="#1D1F42"/>
<path fill-rule="evenodd" clip-rule="evenodd" d="M11.9981 24.0003C15.2381 24.0003 17.9544 22.9257 19.9399 21.093L16.0617 18.0821C14.9871 18.8021 13.6126 19.2275 11.9981 19.2275C8.8726 19.2275 6.22714 17.1166 5.2835 14.2803H1.27441V17.3894C3.24896 21.3112 7.30714 24.0003 11.9981 24.0003Z" fill="#1D1F42"/>
<path fill-rule="evenodd" clip-rule="evenodd" d="M5.28545 14.2804C5.04545 13.5604 4.90909 12.7913 4.90909 12.0004C4.90909 11.2095 5.04545 10.4404 5.28545 9.72042V6.61133H1.27636C0.463636 8.23133 0 10.0641 0 12.0004C0 13.9368 0.463636 15.7695 1.27636 17.3895L5.28545 14.2804Z" fill="#1D1F42"/>
<path fill-rule="evenodd" clip-rule="evenodd" d="M11.9981 4.77273C13.7599 4.77273 15.3417 5.37818 16.5853 6.56727L20.0271 3.12545C17.949 1.18909 15.2326 0 11.9981 0C7.30714 0 3.24896 2.68909 1.27441 6.61091L5.2835 9.72C6.22714 6.88364 8.8726 4.77273 11.9981 4.77273Z" fill="#1D1F42"/>
</g>
<defs>
<clipPath id="clip0_1_659">
<rect width="24" height="24" rx="12" fill="white"/>
</clipPath>
</defs>
</svg>
