<svg width="24" height="24" viewBox="0 0 24 24" fill="none" xmlns="http://www.w3.org/2000/svg">
<rect width="24" height="24" rx="12" fill="#1D1F42"/>
<path d="M14.8422 9.78955C15.8472 9.78955 16.8111 10.1888 17.5218 10.8995C18.2324 11.6101 18.6317 12.574 18.6317 13.579V18.0001H16.1054V13.579C16.1054 13.244 15.9723 12.9227 15.7354 12.6858C15.4985 12.4489 15.1772 12.3159 14.8422 12.3159C14.5072 12.3159 14.1859 12.4489 13.949 12.6858C13.7121 12.9227 13.5791 13.244 13.5791 13.579V18.0001H11.0527V13.579C11.0527 12.574 11.452 11.6101 12.1626 10.8995C12.8733 10.1888 13.8372 9.78955 14.8422 9.78955Z" fill="white"/>
<path d="M8.52632 10.4211H6V18.0001H8.52632V10.4211Z" fill="white"/>
<path d="M7.26316 8.52632C7.96078 8.52632 8.52632 7.96078 8.52632 7.26316C8.52632 6.56554 7.96078 6 7.26316 6C6.56554 6 6 6.56554 6 7.26316C6 7.96078 6.56554 8.52632 7.26316 8.52632Z" fill="white"/>
</svg>
