<svg width="24" height="24" viewBox="0 0 24 24" fill="none" xmlns="http://www.w3.org/2000/svg">
<rect width="24" height="24" rx="12" fill="#1D1F42"/>
<path d="M14.7148 5.00024H12.1075V15.0814C12.1075 16.2826 11.1048 17.2692 9.85689 17.2692C8.609 17.2692 7.60623 16.2826 7.60623 15.0814C7.60623 13.9017 8.58671 12.9365 9.79005 12.8936V10.3626C7.13827 10.4055 4.99902 12.486 4.99902 15.0814C4.99902 17.6982 7.18283 19.8002 9.87919 19.8002C12.5755 19.8002 14.7593 17.6768 14.7593 15.0814V9.91212C15.7398 10.5985 16.9431 11.006 18.2133 11.0275V8.49648C16.2524 8.43213 14.7148 6.88778 14.7148 5.00024Z" fill="white"/>
</svg>
