<svg width="16" height="17" viewBox="0 0 16 17" fill="none" xmlns="http://www.w3.org/2000/svg">
<path d="M11.2 5.7C11.3926 5.55557 11.6308 5.48545 11.8709 5.50252C12.111 5.51958 12.3369 5.62268 12.5071 5.79289C12.6773 5.96311 12.7804 6.189 12.7975 6.42911C12.8145 6.66922 12.7444 6.90743 12.6 7.1L8.6 11.1C8.41307 11.2832 8.16175 11.3859 7.9 11.3859C7.63825 11.3859 7.38693 11.2832 7.2 11.1L3.2 7.1C3.05557 6.90743 2.98545 6.66922 3.00252 6.42911C3.01958 6.189 3.12268 5.96311 3.29289 5.79289C3.46311 5.62268 3.689 5.51958 3.92911 5.50252C4.16922 5.48545 4.40743 5.55557 4.6 5.7L7.9 8.99L11.2 5.69V5.7Z" fill="#71717A"/>
</svg>
