<svg width="14" height="17" viewBox="0 0 14 17" fill="none" xmlns="http://www.w3.org/2000/svg">
<path d="M2.24701 12.7136H12.9999V16H2.24767C1.34018 16 0.604492 15.2643 0.604492 14.3568C0.604492 13.4493 1.34016 12.7136 2.24767 12.7136L2.24701 12.7136ZM12.3181 13.3955H2.24833C1.71739 13.3955 1.28696 13.8259 1.28696 14.3568C1.28696 14.8877 1.71739 15.3182 2.24833 15.3182H12.3181V13.3955ZM2.24701 1.00003H12.9999V13.3955H2.24767C1.71818 13.4008 1.29051 13.8292 1.2863 14.3584V14.3588H0.604521V2.64321C0.611772 1.73933 1.34196 1.00844 2.24482 1H2.24564L2.24701 1.00003ZM12.3181 1.68185H2.24833C1.71871 1.6872 1.29087 2.11552 1.2863 2.64484V13.03C1.55151 12.8338 1.88454 12.7154 2.24518 12.7136H12.3181L12.3181 1.68185ZM3.89086 13.0546H3.20905V1.34094H3.89086V13.0546Z" fill="#7CDDBD" stroke="#7CDDBD" stroke-width="0.4"/>
</svg>
