<svg viewBox="0 0 17 15" fill="none" xmlns="http://www.w3.org/2000/svg">
<path d="M0.922576 14.451C1.03914 14.4841 1.15659 14.5 1.27272 14.5C1.6939 14.5 2.09157 14.289 2.32557 13.9201L3.36753 12.2782C3.65514 11.8252 4.14973 11.5549 4.69119 11.5549H14.1888C15.7389 11.5549 17 10.31 17 8.77988L16.9998 3.27499C16.9998 1.74467 15.7387 0.5 14.1886 0.5H2.81119C1.26113 0.5 0 1.74489 0 3.27499V3.27628L0.0176499 13.2677C0.0185215 13.8229 0.382617 14.2987 0.922956 14.4511L0.922576 14.451ZM2.81083 1.7334H14.1882C15.0494 1.7334 15.7501 2.42508 15.7501 3.27512V8.77979C15.7501 9.62983 15.0494 10.3215 14.1882 10.3215L4.69061 10.3217C3.71619 10.3217 2.82545 10.8082 2.3082 11.6238L1.26624 13.2655L1.24859 3.27517C1.24859 2.42497 1.94929 1.73323 2.81042 1.73323L2.81083 1.7334Z" fill="currentColor"/>
</svg>
