<svg viewBox="0 0 14 16" fill="none" xmlns="http://www.w3.org/2000/svg">
<path d="M11.2132 1.59251H10.3937V0.663037C10.3937 0.360537 10.1462 0.113037 9.8437 0.113037C9.5412 0.113037 9.2937 0.360537 9.2937 0.663037V1.59251H4.7067L4.70658 0.663037C4.70658 0.360537 4.45908 0.113037 4.15658 0.113037C3.85408 0.113037 3.60658 0.360537 3.60658 0.663037V1.59251H2.78711C1.27461 1.59251 0.0371094 2.82447 0.0371094 4.34251V5.04644H13.9631L13.9632 4.34251C13.9632 2.82447 12.7257 1.59251 11.2132 1.59251H11.2132Z" fill="currentColor"/>
<path d="M0.0371094 12.763C0.0371094 14.2811 1.27461 15.513 2.78711 15.513H11.2131C12.7256 15.513 13.9631 14.2811 13.9631 12.763L13.9632 6.14636H0.0372321L0.0371094 12.763Z" fill="currentColor"/>
</svg>
