<svg viewBox="0 0 21 15" fill="none" xmlns="http://www.w3.org/2000/svg">
<path d="M6.58847 6.49579C8.38223 6.49579 9.83637 5.04166 9.83637 3.2479C9.83637 1.45413 8.38223 0 6.58847 0C4.79471 0 3.34058 1.45413 3.34058 3.2479C3.34058 5.04166 4.79471 6.49579 6.58847 6.49579Z" fill="currentColor"/>
<path d="M16.0541 7.83204C17.525 7.83204 18.7174 6.63965 18.7174 5.16877C18.7174 3.69788 17.525 2.50549 16.0541 2.50549C14.5833 2.50549 13.3909 3.69788 13.3909 5.16877C13.3909 6.63965 14.5833 7.83204 16.0541 7.83204Z" fill="currentColor"/>
<path d="M11.8827 10.0785C11.1371 9.27073 10.2324 8.62607 9.22539 8.18515C8.21843 7.74423 7.13107 7.5166 6.03181 7.5166C4.93254 7.5166 3.84519 7.74423 2.83822 8.18515C1.83126 8.62607 0.92651 9.27073 0.180954 10.0785C0.0658472 10.2058 0.00145797 10.3709 0 10.5425V13.3264C0.00243984 13.5094 0.0768415 13.684 0.207099 13.8126C0.337357 13.9411 0.51299 14.0131 0.695978 14.0131H11.3676C11.5522 14.0131 11.7292 13.9398 11.8598 13.8093C11.9903 13.6787 12.0636 13.5017 12.0636 13.3171V10.5332C12.0599 10.3648 11.9957 10.2034 11.8827 10.0785Z" fill="currentColor"/>
<path fill-rule="evenodd" clip-rule="evenodd" d="M12.431 9.68981C12.529 9.78556 12.6247 9.88394 12.7178 9.98486C12.8308 10.1097 12.8951 10.2712 12.8988 10.4396V13.2235C12.8988 13.4081 12.8254 13.5851 12.6949 13.7156C12.5644 13.8461 12.3874 13.9195 12.2028 13.9195H11.6682C11.6716 13.9195 11.6751 13.9195 11.6785 13.9195H20.4293C20.5806 13.9195 20.7258 13.8594 20.8328 13.7524C20.9398 13.6454 21 13.5002 21 13.3488V11.066C20.9969 10.928 20.9443 10.7956 20.8516 10.6932C20.2402 10.0308 19.4983 9.50217 18.6726 9.14062C17.8469 8.77906 16.9553 8.59241 16.0539 8.59241C15.1525 8.59241 14.2609 8.77906 13.4352 9.14062C13.0841 9.29433 12.7482 9.47825 12.431 9.68981Z" fill="currentColor"/>
</svg>
