<svg width="19" height="19" viewBox="0 0 19 19" fill="none" xmlns="http://www.w3.org/2000/svg">
<path d="M14.2222 9.12233V12.3334C14.2222 15.463 11.6852 18.0001 8.55556 18.0001H6.66667C3.53705 18.0001 1 15.463 1 12.3334V9.12233C1 8.80934 1.25371 8.55566 1.56667 8.55566H13.6556C13.9685 8.55566 14.2222 8.80934 14.2222 9.12233Z" stroke="#7CDDBD" stroke-linecap="round" stroke-linejoin="round"/>
<path d="M9.5 6.6671C9.5 5.72266 10.1746 4.77821 11.5239 4.77821C13.0141 4.77821 14.2222 3.57009 14.2222 2.0798V1.47266" stroke="#7CDDBD" stroke-linecap="round" stroke-linejoin="round"/>
<path d="M5.72266 6.66667V6.19445C5.72266 4.62964 6.99119 3.36111 8.55599 3.36111C9.59922 3.36111 10.4449 2.51543 10.4449 1.47222V1" stroke="#7CDDBD" stroke-linecap="round" stroke-linejoin="round"/>
<path d="M13.2773 8.55566H15.6385C16.9424 8.55566 17.9996 9.61278 17.9996 10.9168C17.9996 12.2208 16.9424 13.2779 15.6385 13.2779H14.2218" stroke="#7CDDBD" stroke-linecap="round" stroke-linejoin="round"/>
</svg>
