<svg width="36" height="34" viewBox="0 0 36 34" fill="none" xmlns="http://www.w3.org/2000/svg">
<path fill-rule="evenodd" clip-rule="evenodd" d="M33.917 1.47904C31.8054 -0.491268 28.362 -0.49476 26.2467 1.47904C26.1807 1.54059 26.117 1.60319 26.0552 1.66719C24.4946 0.903421 22.8407 0.363501 21.1512 0.045232C21.0125 0.0172548 20.8619 0.0431334 20.7431 0.115525C20.6835 0.151895 20.6321 0.199107 20.592 0.254015C20.5523 0.30892 20.5242 0.371169 20.5103 0.43622C20.4822 0.566312 20.5122 0.706198 20.5917 0.816012C20.6314 0.870917 20.6831 0.918475 20.7423 0.95485C20.8015 0.991221 20.869 1.0164 20.9387 1.02864C22.4783 1.31856 23.9861 1.80361 25.4113 2.48525C24.1877 4.4244 24.4691 6.971 26.2505 8.63325C28.0314 10.2951 30.7576 10.5553 32.8346 9.41346C33.5681 10.7406 34.0876 12.1475 34.3922 13.5873C34.4049 13.6527 34.4315 13.7157 34.4701 13.7713C34.5087 13.8269 34.5593 13.8755 34.6182 13.9129C34.7355 13.9877 34.8858 14.0164 35.0252 13.9909C35.0949 13.9779 35.162 13.9521 35.2208 13.915C35.2797 13.8779 35.3306 13.83 35.37 13.7744C35.4483 13.6635 35.4764 13.523 35.4465 13.3932C35.1118 11.8118 34.5331 10.266 33.7108 8.81265C33.7794 8.7546 33.8469 8.6948 33.9132 8.63325C36.0281 6.6598 36.0285 3.44981 33.917 1.47949L33.917 1.47904ZM33.1573 2.18792C34.8581 3.77497 34.8584 6.33276 33.1535 7.92356C31.4527 9.51061 28.7112 9.51061 27.0105 7.92356C25.3097 6.33652 25.3064 3.77452 27.0068 2.18792C28.7113 0.597381 31.4566 0.600873 33.1573 2.18792Z" fill="#FF927D"/>
<path fill-rule="evenodd" clip-rule="evenodd" d="M14.3444 0.17567C14.2856 0.119709 14.2131 0.0784411 14.135 0.056406C14.057 0.0343718 13.9736 0.0315738 13.8942 0.0483616C12.3153 0.359647 10.7749 0.90106 9.3189 1.66388C9.26219 1.60128 9.20372 1.53972 9.14316 1.47921C7.16727 -0.494816 3.95067 -0.491324 1.97872 1.47921C0.00633031 3.44975 0.00668877 6.6601 1.98222 8.63377C2.04104 8.69253 2.1009 8.74919 2.16182 8.80445C1.39373 10.2636 0.850383 11.8099 0.535991 13.3939C0.508334 13.5237 0.534591 13.664 0.607408 13.7745C0.643816 13.8297 0.691428 13.878 0.746393 13.9147C0.801356 13.9518 0.86402 13.9777 0.929139 13.9906C1.05937 14.0165 1.1994 13.9882 1.30898 13.9133C1.36395 13.8759 1.41121 13.8276 1.44727 13.7724C1.48368 13.7168 1.50853 13.6542 1.52044 13.5888C1.80646 12.1481 2.29307 10.7404 2.97822 9.4071C4.91942 10.5568 7.47257 10.2986 9.13971 8.63345C10.8051 6.96967 11.0669 4.42027 9.9211 2.48054C11.2514 1.79956 12.6538 1.31476 14.0885 1.03219C14.1792 1.01575 14.2646 0.973777 14.3332 0.912224C14.4018 0.851017 14.4529 0.770227 14.4792 0.682086C14.5055 0.593948 14.5069 0.498464 14.4834 0.409625C14.4596 0.320787 14.4109 0.238591 14.3444 0.175288L14.3444 0.17567ZM8.43321 2.1882C10.0216 3.77506 10.0184 6.33735 8.42971 7.92449C6.84098 9.51171 4.28014 9.51171 2.6915 7.92449C1.09893 6.33341 1.09929 3.77533 2.688 2.1882C4.27672 0.600971 6.84108 0.597479 8.43321 2.1882Z" fill="#FF927D"/>
<path fill-rule="evenodd" clip-rule="evenodd" d="M35.304 20.1456C35.235 20.0819 35.1473 20.0357 35.0528 20.0143C34.9584 19.9926 34.8579 19.9957 34.765 20.0227C34.6724 20.0497 34.5877 20.1008 34.5232 20.1691C34.4587 20.237 34.4145 20.3217 34.3969 20.411C34.0903 21.8487 33.5715 23.25 32.8429 24.5795C30.7641 23.4342 28.0332 23.6968 26.2505 25.3617C24.4675 27.0273 24.1849 29.5785 25.4176 31.5218C23.9911 32.2056 22.4843 32.6937 20.9392 32.9823C20.8695 32.9942 20.802 33.0194 20.7428 33.0558C20.6832 33.0919 20.6319 33.1395 20.5921 33.1945C20.5127 33.3044 20.4823 33.4445 20.5101 33.5744C20.5239 33.6395 20.552 33.7018 20.5914 33.7568C20.6311 33.8118 20.6825 33.8594 20.7421 33.8958C20.8609 33.9686 21.0112 33.9949 21.1499 33.9669C22.8478 33.6496 24.503 33.1059 26.0642 32.3394C26.1257 32.4021 26.1879 32.4623 26.2505 32.5205C28.3623 34.4932 31.8024 34.4932 33.9141 32.5205C36.0259 30.5477 36.0301 27.3309 33.9179 25.3579C33.8527 25.297 33.7863 25.2382 33.7189 25.1811C34.5349 23.7263 35.1143 22.1874 35.4509 20.6069C35.4697 20.5249 35.4659 20.4388 35.4405 20.3586C35.415 20.2784 35.3674 20.2045 35.304 20.1454L35.304 20.1456ZM33.1577 26.0679C34.8584 27.6565 34.855 30.2217 33.154 31.8106C31.453 33.3996 28.7112 33.3996 27.0103 31.8106C26.905 31.7122 26.8071 31.6138 26.7247 31.5193C26.7232 31.5193 26.722 31.5144 26.7205 31.5144C26.7104 31.5031 26.692 31.4804 26.6684 31.4517C26.6441 31.4111 26.6133 31.3736 26.5781 31.341C25.3281 29.7531 25.4701 27.5109 27.0107 26.0717C28.7116 24.4827 31.4576 24.48 33.1581 26.0668L33.1577 26.0679Z" fill="#FF927D"/>
<path fill-rule="evenodd" clip-rule="evenodd" d="M9.14136 25.3609C7.47271 23.6924 4.9184 23.4281 2.97479 24.5867C2.29191 23.2551 1.80512 21.8495 1.51591 20.4092C1.50366 20.3441 1.47844 20.2814 1.44202 20.226C1.4056 20.1707 1.35833 20.1228 1.30334 20.0856C1.19338 20.0114 1.05365 19.9834 0.923379 20.0096C0.858243 20.0226 0.795906 20.0489 0.741282 20.086C0.686301 20.1231 0.639028 20.1711 0.602603 20.2264C0.529762 20.3374 0.503494 20.4775 0.531512 20.607C0.849142 22.1884 1.39054 23.7319 2.1557 25.1893C2.09547 25.2439 2.03594 25.2996 1.97815 25.3574C0.00477409 27.3306 0.00862896 30.5475 1.98165 32.5204C3.95467 34.4932 7.16871 34.4932 9.14173 32.5204C9.19986 32.4622 9.25589 32.4034 9.31052 32.3432C10.7649 33.1104 12.312 33.6521 13.8935 33.9669C14.0231 33.9945 14.1635 33.9669 14.2742 33.8951C14.3295 33.8583 14.3775 33.811 14.4146 33.7561C14.4517 33.7011 14.4776 33.6388 14.4906 33.5736C14.5165 33.4437 14.4882 33.3037 14.4139 33.194C14.3768 33.1391 14.3285 33.0918 14.2731 33.0554C14.2178 33.0193 14.1548 32.9941 14.0896 32.9818C12.6503 32.6954 11.2418 32.2097 9.91498 31.5262C11.0678 29.5842 10.8101 27.0287 9.1421 25.3605L9.14136 25.3609ZM8.43151 26.0707C10.0207 27.6598 10.0207 30.2213 8.43151 31.8103C6.84229 33.3994 4.28063 33.3994 2.69149 31.8103C1.10227 30.2212 1.09949 27.6559 2.68799 26.0672C2.81826 25.937 2.95764 25.8162 3.10192 25.7083L3.14045 25.6817C3.145 25.6768 3.1492 25.675 3.15375 25.6722C4.74119 24.495 6.9877 24.627 8.43151 26.0707Z" fill="#FF927D"/>
</svg>
