<svg width="18" height="12" viewBox="0 0 18 12" fill="none" xmlns="http://www.w3.org/2000/svg">
<path d="M11.515 7.77785V8.97237H6.25V7.7785C6.25 7.1184 6.78443 6.5842 7.44131 6.5842H7.44138L10.3237 6.58333C10.3237 6.58333 10.3238 6.58333 10.3238 6.58333C10.9817 6.58337 11.515 7.11758 11.515 7.77785ZM8.88239 3.25C9.54056 3.25 10.0737 3.7842 10.0737 4.44452C10.0737 5.10483 9.54056 5.63903 8.88239 5.63903C8.22447 5.63903 7.69131 5.10486 7.69131 4.44452C7.69131 3.78417 8.22447 3.25 8.88239 3.25Z" stroke="#7CDDBD" stroke-width="0.5"/>
<path d="M1.50007 0.499826H16.4999C17.1056 0.499826 17.5 0.929905 17.5 1.33323V10.6664C17.5 11.0697 17.1056 11.4998 16.4999 11.4998H1.50007C0.894377 11.4998 0.5 11.0697 0.5 10.6664V1.33323C0.5 0.929906 0.894377 0.499826 1.50007 0.499826Z" stroke="#7CDDBD"/>
</svg>
