<svg viewBox="0 0 41 39" fill="none" xmlns="http://www.w3.org/2000/svg">
<path d="M39.6562 14.6851L34.1598 9.88898V0.645464C34.1598 0.291517 33.8739 0 33.5164 0H7.06006C6.70721 0 6.4166 0.286772 6.4166 0.645464V10.3522L1.34441 14.6797C0.467166 15.4304 0 16.4539 0 17.6349V35.0933C0 37.2499 1.74939 39 3.89931 39H37.1007C39.2506 39 41 37.2452 41 35.0933V17.6349C40.9953 16.4681 40.5328 15.4494 39.6559 14.6845L39.6562 14.6851ZM38.8172 15.6557C39.413 16.177 39.7134 16.8414 39.7134 17.6352V18.7924L34.1601 22.4887L34.1598 11.596L38.8172 15.6557ZM32.8777 1.2863V23.3401L20.5366 31.5599L7.70392 22.9483V1.28712L32.8777 1.2863ZM2.17911 15.6606L6.41668 12.0407V22.0824L1.28764 18.6396V17.6358C1.28764 16.8322 1.58804 16.1677 2.17903 15.6607L2.17911 15.6606ZM37.1013 37.7144H3.89995C2.46045 37.7144 1.28756 36.5382 1.28756 35.0939V20.1939L20.1836 32.8753C20.2933 32.9469 20.4171 32.9852 20.5412 32.9852C20.6651 32.9852 20.7892 32.9516 20.8988 32.88L39.7181 20.3471V35.0986C39.7134 36.5382 38.5407 37.7144 37.101 37.7144L37.1013 37.7144ZM16.5798 9.89871C16.5798 9.54476 16.8657 9.25325 17.2233 9.25325H23.692C24.0448 9.25325 24.3354 9.54002 24.3354 9.89871C24.3354 10.2574 24.0495 10.5442 23.692 10.5442H17.2233C16.8704 10.5394 16.5798 10.2527 16.5798 9.89871ZM13.2668 14.3457C13.2668 13.9917 13.5527 13.7002 13.9103 13.7002H27.0098C27.3627 13.7002 27.6533 13.987 27.6533 14.3457C27.6533 14.7043 27.3674 14.9911 27.0098 14.9911L13.9054 14.9914C13.5526 14.9914 13.2667 14.6996 13.2667 14.3457H13.2668Z" fill="#FF927D"/>
</svg>
