<svg width="46" height="44" viewBox="0 0 46 44" fill="none" xmlns="http://www.w3.org/2000/svg">
<path d="M21.2676 27.8795C20.6433 27.4113 20.0448 27.0061 19.5399 26.6854C20.8563 26.5382 21.923 26.2222 22.719 25.7437C23.6765 25.165 24.2851 24.3444 24.5247 23.2975C24.8006 22.1033 24.0979 20.9195 22.9325 20.5986C22.6722 20.5249 22.3862 20.446 22.0792 20.3619C20.5805 19.9462 18.7128 19.4361 17.4587 19.1204C16.0225 18.7626 14.4982 19.2151 13.4833 20.3044C11.6831 22.2405 10.7986 24.7184 10.2886 26.4175C9.78377 28.1012 9.94528 29.8899 10.7412 31.4525C10.7463 31.4631 10.7518 31.4789 10.7619 31.4892L15.8766 39.9386C16.0951 40.3753 16.2098 40.8593 16.2098 41.3485V43.4635C16.2098 43.7582 16.449 44 16.7405 44C17.0319 44 17.2711 43.7582 17.2711 43.4635V41.3485C17.2711 40.6858 17.115 40.0227 16.813 39.4336C16.808 39.423 16.8025 39.4072 16.7924 39.3969L11.6776 30.9475C11.0167 29.6323 10.8868 28.1328 11.3082 26.7284C11.7869 25.1342 12.6141 22.809 14.2586 21.0413C15.0132 20.2365 16.1423 19.8996 17.2035 20.1627C18.447 20.4732 20.3046 20.9888 21.8032 21.3991C22.1103 21.4831 22.3963 21.562 22.6565 21.6358C23.2707 21.8042 23.6401 22.4303 23.4942 23.0563C23.3175 23.8193 22.8906 24.398 22.1778 24.824C21.2047 25.4134 19.7061 25.7077 17.7236 25.7077C17.479 25.7077 17.2656 25.8762 17.2086 26.118C17.1512 26.3599 17.2659 26.6072 17.4844 26.7232C17.5418 26.7547 23.3588 29.7746 24.9823 33.7046C25.0966 33.978 25.4036 34.1046 25.6744 33.9937C25.9448 33.8781 26.07 33.5677 25.9604 33.2939C25.2113 31.4788 23.6292 29.6586 21.2671 27.8857L21.2676 27.8795Z" fill="black"/>
<path d="M35.7337 16.4424C35.7337 16.4004 35.7237 16.3532 35.714 16.3167C35.6444 15.6616 35.3864 15.0485 34.9643 14.545C34.4231 13.9005 33.6737 13.5177 32.8596 13.4706C32.0057 13.4184 31.2065 13.7485 30.6205 14.3195C30.5014 13.8424 30.2729 13.392 29.9505 13.0144C29.4092 12.3699 28.6598 11.9871 27.8458 11.94C26.843 11.8823 25.9246 12.3436 25.3238 13.1037C25.185 12.7107 24.9713 12.3437 24.6932 12.0242C24.1371 11.3954 23.3826 11.0334 22.5684 11.002C21.1535 10.9497 19.9273 11.9295 19.5402 13.303C18.9892 12.4749 18.0757 11.935 17.048 11.935C15.3651 11.935 14 13.3761 14 15.1528V17.4852C14 17.7788 14.2282 18.0197 14.5063 18.0197C14.7843 18.0197 15.0125 17.7788 15.0125 17.4852V15.1528C15.0125 13.9684 15.926 13.0039 17.048 13.0039C18.1699 13.0039 19.0834 13.9684 19.0834 15.1528V15.1843L19.2372 18.1243C19.2372 18.1557 19.242 18.1871 19.2521 18.2186V18.2292C19.2521 18.2292 19.2569 18.2449 19.2621 18.2555C19.2621 18.2661 19.2621 18.2712 19.2722 18.2818V18.2975C19.2722 18.2975 19.2871 18.3184 19.2919 18.329V18.3447C19.2919 18.3447 19.3068 18.3655 19.3168 18.3761L19.3269 18.3919C19.3269 18.3919 19.3369 18.4127 19.3466 18.4182L19.3567 18.4339C19.3567 18.4339 19.3667 18.4496 19.3764 18.4602C19.3764 18.4653 19.3864 18.4708 19.3913 18.476C19.3961 18.4811 19.4013 18.4917 19.411 18.4968C19.4159 18.5019 19.4211 18.5074 19.4259 18.5125C19.4308 18.5176 19.4408 18.5231 19.4457 18.5282C19.4505 18.5282 19.4605 18.5388 19.4654 18.5439C19.4702 18.5439 19.4803 18.5546 19.4851 18.5597C19.49 18.5597 19.5 18.5703 19.5049 18.5703C19.5097 18.5703 19.5198 18.5809 19.5246 18.5809C19.5295 18.5809 19.5395 18.586 19.5443 18.5915C19.5544 18.5915 19.5592 18.5966 19.5693 18.6021H19.589C19.589 18.6021 19.6039 18.6178 19.614 18.6178H19.6337C19.6337 18.6178 19.6534 18.6284 19.6635 18.6284H19.6832C19.6832 18.6284 19.703 18.6335 19.713 18.6335H19.723H19.7331H19.748H19.7777H19.7975H19.8273C19.9762 18.6072 20.1053 18.5129 20.1798 18.382C20.1798 18.382 20.1947 18.3557 20.1995 18.34C20.1995 18.34 20.2096 18.3085 20.2144 18.2928C20.2144 18.2928 20.2245 18.2562 20.2293 18.2405C20.2393 18.1985 20.2442 18.1619 20.2442 18.1254L20.418 14.158C20.4578 12.9684 21.4011 12.0406 22.5227 12.0776C23.0688 12.0984 23.5702 12.3397 23.9425 12.759C24.3148 13.1783 24.5083 13.7285 24.4886 14.2999L24.3446 19.7504V19.7712V19.7975V19.8238V19.8502V19.8765C24.3446 19.8871 24.3446 19.8922 24.3494 19.9028C24.3494 19.9134 24.3494 19.9185 24.3542 19.9291C24.3542 19.9397 24.3542 19.9448 24.3643 19.9554C24.3643 19.966 24.3691 19.9712 24.3743 19.9818C24.3743 19.9869 24.3792 19.9975 24.3844 20.0026C24.3844 20.0132 24.3944 20.0183 24.3944 20.0234C24.3944 20.0286 24.4045 20.0392 24.4045 20.0443C24.4045 20.0494 24.4145 20.06 24.4194 20.0651C24.4194 20.0702 24.4294 20.0808 24.4342 20.086C24.4342 20.0911 24.4443 20.1017 24.4491 20.1068C24.454 20.1119 24.4592 20.1174 24.464 20.1276L24.4789 20.1434C24.4838 20.1485 24.489 20.154 24.4986 20.1591C24.5035 20.1642 24.5087 20.1697 24.5184 20.1748C24.5232 20.1799 24.5333 20.1854 24.5381 20.1905C24.543 20.1905 24.553 20.2011 24.5579 20.2062C24.5627 20.2062 24.5728 20.2168 24.5776 20.222C24.5825 20.222 24.5925 20.2326 24.5973 20.2326C24.6022 20.2326 24.6122 20.2432 24.6171 20.2432C24.6219 20.2432 24.632 20.2483 24.642 20.2538C24.6521 20.2538 24.6569 20.2589 24.6669 20.2644C24.677 20.2644 24.6818 20.2695 24.6919 20.275C24.7019 20.275 24.7068 20.275 24.7168 20.2801C24.7269 20.2801 24.7317 20.2801 24.7417 20.2852H24.7667H24.7916H24.8065H24.8165H24.8463H24.8761H24.8958C24.8958 20.2852 24.9208 20.2852 24.9305 20.2801H24.9454C24.9454 20.2801 24.9703 20.2695 24.98 20.2695H24.99C24.99 20.2695 25.015 20.2589 25.0247 20.2538H25.0347C25.0347 20.2538 25.0596 20.238 25.0693 20.2329H25.0742C25.0742 20.2329 25.0991 20.2172 25.1088 20.2066H25.1137C25.1137 20.2066 25.1386 20.1858 25.1483 20.1752H25.1531L25.1829 20.1437H25.1878C25.1878 20.1437 25.2075 20.1174 25.2127 20.1072V20.0966C25.2127 20.0966 25.2324 20.0757 25.2425 20.0651L25.2525 20.0545C25.2525 20.0545 25.2626 20.0337 25.2722 20.0231L25.2823 20.0074C25.2823 20.0074 25.2923 19.9865 25.2972 19.9759L25.3072 19.9551C25.3072 19.9551 25.3121 19.9394 25.3173 19.9288C25.3173 19.9236 25.3173 19.913 25.3221 19.9024C25.3221 19.8918 25.3221 19.8867 25.327 19.8761C25.327 19.8655 25.327 19.8604 25.3318 19.8498V19.8235V19.792V19.7763L25.6047 15.0069C25.6743 13.8275 26.6373 12.921 27.7541 12.9893C28.3001 13.0207 28.7967 13.2773 29.159 13.7073C29.5215 14.1372 29.705 14.6925 29.6704 15.2639L29.2982 21.7628C29.2286 22.9422 28.2656 23.8488 27.1488 23.7805C26.851 23.7648 26.5629 23.681 26.3049 23.529C26.0566 23.3875 25.754 23.4869 25.6199 23.7491C25.4859 24.0112 25.5801 24.3307 25.8284 24.4722C26.2207 24.6923 26.6474 24.818 27.0944 24.8494H27.2682C28.3705 24.8494 29.358 24.2206 29.8892 23.2669C29.9536 23.3612 30.0232 23.4555 30.0977 23.5447C30.6389 24.1892 31.3883 24.572 32.2024 24.6191H32.3762C33.4237 24.6191 34.367 24.0477 34.9131 23.178L34.9875 25.3112C34.9875 27.0773 34.7541 28.8384 34.2974 30.5364L31.711 40.1377C31.6961 40.1848 31.6912 40.232 31.6912 40.2843V43.4655C31.6912 43.7591 31.9194 44 32.1975 44C32.4755 44 32.7037 43.7591 32.7037 43.4655V40.3577L35.2704 30.8295C35.7569 29.0319 36 27.1711 36 25.3056V25.2848L35.6922 16.4224L35.7337 16.4424ZM34.7208 16.8146L34.4528 21.5577C34.3832 22.7371 33.4202 23.6437 32.3034 23.5753C31.7574 23.5439 31.2608 23.2873 30.8985 22.8573C30.536 22.4274 30.3525 21.8721 30.3871 21.3007L30.6551 16.5576C30.7247 15.3782 31.6877 14.4716 32.8045 14.5399C33.3506 14.5714 33.8472 14.828 34.2094 15.2579C34.5719 15.6879 34.7555 16.2431 34.7208 16.8146Z" fill="black"/>
<path d="M23.5 5C23.7746 5 24 4.74936 24 4.44394V0.556057C24 0.250644 23.7746 0 23.5 0C23.2254 0 23 0.250644 23 0.556057V4.44394C23 4.74936 23.2254 5 23.5 5Z" fill="black"/>
<path d="M4.44355 27H0.556056C0.250644 27 0 27.2254 0 27.5C0 27.7746 0.250644 28 0.556056 28H4.44394C4.74936 28 5 27.7746 5 27.5C5 27.2254 4.74936 27 4.44394 27H4.44355Z" fill="black"/>
<path d="M12.8293 7.78893C12.9565 7.92785 13.1533 8 13.3506 8C13.484 8 13.6174 7.9641 13.738 7.89698C14.0238 7.72217 14.0872 7.39766 13.8714 7.16111L11.1707 4.21222C10.9548 3.98069 10.5541 3.92936 10.262 4.10417C9.97616 4.27898 9.91277 4.60349 10.1286 4.84004L12.8293 7.78893Z" fill="black"/>
<path d="M6.61569 16.0901L2.77252 15.0249C2.47021 14.9426 2.13968 15.0705 2.03109 15.3129C1.92847 15.5553 2.08797 15.8203 2.39027 15.9074L6.23344 16.9726C6.29628 16.9908 6.35874 17 6.42158 17C6.66104 17 6.88936 16.881 6.96891 16.6846C7.07153 16.4422 6.91203 16.1772 6.60973 16.0901L6.61569 16.0901Z" fill="black"/>
<path d="M45.5552 27H42.4448C42.2005 27 42 27.2254 42 27.5C42 27.7746 42.2005 28 42.4448 28H45.5552C45.7995 28 46 27.7746 46 27.5C46 27.2254 45.7995 27 45.5552 27Z" fill="black"/>
<path d="M33.1965 7.89698C33.2823 7.96913 33.387 8 33.4871 8C33.6347 8 33.7826 7.92785 33.878 7.78893L35.9035 4.84004C36.0654 4.60852 36.0179 4.27898 35.8035 4.10417C35.5891 3.92936 35.2839 3.98069 35.122 4.21222L33.0965 7.16111C32.9346 7.39264 32.9821 7.72217 33.1965 7.89698Z" fill="black"/>
<path d="M43.9799 15.3129C43.8978 15.0705 43.633 14.9426 43.3868 15.0249L40.3122 16.0901C40.0704 16.1724 39.9428 16.4377 40.0249 16.6846C40.0933 16.8766 40.2712 17 40.4627 17C40.513 17 40.563 16.9908 40.6132 16.9726L43.6878 15.9074C43.9296 15.8251 44.0572 15.5598 43.9751 15.3129L43.9799 15.3129Z" fill="black"/>
</svg>
