<svg viewBox="0 0 19 15" fill="none" xmlns="http://www.w3.org/2000/svg">
<path fill-rule="evenodd" clip-rule="evenodd" d="M12.2998 11.875H0.678912C0.304338 11.875 0.000349079 12.155 0.000349079 12.5C0.000349079 12.845 0.304338 13.125 0.678912 13.125H12.2998C12.6018 14.2026 13.6651 15 14.9286 15C16.1921 15 17.2554 14.2026 17.5575 13.125H18.3214C18.696 13.125 19 12.845 19 12.5C19 12.155 18.696 11.875 18.3214 11.875H17.5575C17.2554 10.7974 16.1921 10 14.9286 10C13.6651 10 12.6018 10.7974 12.2998 11.875ZM14.9286 11.25C15.6778 11.25 16.2857 11.81 16.2857 12.5C16.2857 13.19 15.6778 13.75 14.9286 13.75C14.1795 13.75 13.5715 13.19 13.5715 12.5C13.5715 11.81 14.1795 11.25 14.9286 11.25ZM6.87117 6.875H0.678796C0.304221 6.875 0.000232818 7.15499 0.000232818 7.5C0.000232818 7.84501 0.304221 8.125 0.678796 8.125H6.87117C7.17319 9.20257 8.23648 10 9.5 10C10.7635 10 11.8268 9.20257 12.1288 8.125H18.3212C18.6958 8.125 18.9998 7.84501 18.9998 7.5C18.9998 7.15499 18.6958 6.875 18.3212 6.875H12.1288C11.8268 5.79743 10.7635 5 9.5 5C8.23648 5 7.17319 5.79743 6.87117 6.875ZM9.5 6.25C10.2491 6.25 10.8571 6.81 10.8571 7.5C10.8571 8.19 10.2491 8.75 9.5 8.75C8.75087 8.75 8.14287 8.19 8.14287 7.5C8.14287 6.81 8.75087 6.25 9.5 6.25ZM1.44255 1.875H0.678563C0.303989 1.875 0 2.15499 0 2.5C0 2.84501 0.303989 3.125 0.678563 3.125H1.44255C1.74457 4.20257 2.80786 5 4.07138 5C5.3349 5 6.39819 4.20257 6.70021 3.125H18.3211C18.6957 3.125 18.9996 2.84501 18.9996 2.5C18.9996 2.15499 18.6957 1.875 18.3211 1.875H6.70021C6.39819 0.797429 5.3349 0 4.07138 0C2.80786 0 1.74457 0.797429 1.44255 1.875ZM4.07138 1.25C4.82051 1.25 5.4285 1.81 5.4285 2.5C5.4285 3.19 4.82051 3.75 4.07138 3.75C3.32224 3.75 2.71425 3.19 2.71425 2.5C2.71425 1.81 3.32224 1.25 4.07138 1.25Z" fill="currentColor"/>
</svg>
