<svg width="46" height="44" viewBox="0 0 46 44" fill="none" xmlns="http://www.w3.org/2000/svg">
<path d="M9.48859 32.2794H1.9414C1.56527 32.2794 1.26002 32.5854 1.26002 32.9625V43.3169C1.26002 43.694 1.56527 44 1.9414 44H9.48859C9.66906 44 9.8423 43.9278 9.97032 43.7999C10.098 43.6719 10.1696 43.4982 10.1696 43.3169V32.9625C10.1696 32.5854 9.86472 32.2794 9.48859 32.2794ZM8.80686 42.6328H2.6228V33.6439H8.80686V42.6328ZM21.2652 24.575H13.718C13.5371 24.575 13.3639 24.6468 13.2359 24.7748C13.1078 24.9032 13.0362 25.0769 13.0362 25.2582V43.3159C13.0362 43.4972 13.1078 43.6709 13.2359 43.7993C13.3639 43.9273 13.5371 43.9991 13.718 43.9991H21.2652C21.4456 43.9991 21.6189 43.9269 21.7469 43.7989C21.8745 43.6709 21.9462 43.4972 21.9462 43.3159V25.2582C21.9462 24.8807 21.6413 24.575 21.2652 24.575ZM20.5831 42.6328H14.3994V25.9414H20.5831V42.6328ZM33.0414 15.1062H25.4942C25.118 15.1065 24.8131 15.4126 24.8131 15.7897V43.3163C24.8131 43.6934 25.118 43.9994 25.4942 43.9994H33.0414C33.2222 43.9994 33.3954 43.9276 33.5234 43.7997C33.6511 43.6713 33.7231 43.4976 33.7231 43.3163V15.7897C33.7231 15.4122 33.4178 15.1062 33.0414 15.1062ZM32.36 42.6328H26.1763V16.4725H32.36V42.6328ZM44.8183 7.53089H37.2711C36.895 7.53089 36.5897 7.83692 36.5897 8.21402V43.3169C36.5897 43.694 36.895 44 37.2711 44H44.8183C44.9987 44 45.1723 43.9282 45.3004 43.8002C45.428 43.6719 45.5 43.4982 45.5 43.3169V8.21403C45.5 8.03273 45.428 7.85905 45.3004 7.73106C45.1723 7.6027 44.9987 7.53089 44.8183 7.53089ZM44.1369 42.6328H37.9528V8.89725H44.1369V42.6328ZM34.2099 6.27593C34.3708 6.61713 34.2258 7.02431 33.8855 7.18603C33.5452 7.34738 33.139 7.20162 32.9781 6.86079L30.985 2.64245C30.0125 5.37311 28.6689 7.95619 26.9926 10.3192C25.0827 13.0136 22.7659 15.3936 20.1254 17.3734C14.6693 21.4823 8.02444 23.6948 1.2009 23.6745C1.01681 23.6795 0.838511 23.6099 0.706512 23.4812C0.574503 23.3525 0.5 23.1759 0.5 22.9913C0.5 22.8068 0.574502 22.6299 0.706512 22.5011C0.83852 22.3724 1.01682 22.3028 1.2009 22.3079C7.49347 22.3322 13.6351 20.3789 18.7634 16.7229C23.8918 13.0669 27.7486 7.89163 29.7913 1.92414L25.2358 4.08552C24.8958 4.24723 24.4893 4.10147 24.3284 3.76064C24.1674 3.41944 24.3125 3.01189 24.6528 2.85054L30.5222 0.0658483C30.6857 -0.0117461 30.8731 -0.0211732 31.0434 0.0397419C31.2134 0.100657 31.3526 0.226836 31.4297 0.390724L34.2099 6.27593Z" fill="#073CA5"/>
</svg>
