<svg viewBox="0 0 16 13" fill="none" xmlns="http://www.w3.org/2000/svg">
<path d="M15.36 7.68007H11.4496C11.299 7.67569 11.1657 7.77694 11.1296 7.92329L10.9312 8.72007H10.9311C10.895 8.86641 10.7617 8.96766 10.6111 8.96329H5.36951C5.21888 8.96767 5.08558 8.86642 5.04951 8.72007L4.85111 7.92329H4.85102C4.81495 7.77695 4.68165 7.6757 4.53102 7.68007H0.639824C0.463127 7.68007 0.319824 7.82337 0.319824 8.00007V11.5201C0.319824 11.8595 0.454645 12.1852 0.694727 12.4252C0.934727 12.6653 1.26035 12.8001 1.59982 12.8001H14.3998C14.738 12.796 15.0612 12.6597 15.3004 12.4206C15.5395 12.1814 15.6757 11.8583 15.6798 11.5201V8.00007C15.6798 7.91516 15.6461 7.83382 15.5861 7.77382C15.5261 7.71382 15.4447 7.68007 15.3598 7.68007H15.36Z" fill="currentColor"/>
<path d="M13.1648 0.268873C13.1395 0.112354 13.0033 -0.00202983 12.8448 2.73088e-05H3.15205C2.99356 -0.00202627 2.8574 0.11235 2.83205 0.268873L0.377647 6.02887C0.362558 6.12218 0.389433 6.21736 0.451128 6.28896C0.512913 6.36057 0.603092 6.40129 0.697642 6.40004H5.35044C5.50107 6.39566 5.63437 6.49691 5.67044 6.64326L5.86884 7.44004H5.86892C5.87678 7.55861 5.96348 7.65709 6.08009 7.68004H9.92009C10.0441 7.66352 10.1392 7.56173 10.1473 7.43681L10.3457 6.64004C10.3818 6.4937 10.5151 6.39245 10.6657 6.39681H15.3025C15.3971 6.39806 15.4872 6.35744 15.549 6.28583C15.6107 6.21422 15.6376 6.11896 15.6225 6.02565L13.1648 0.268873Z" fill="currentColor"/>
</svg>
