<svg width="17" height="17" viewBox="0 0 17 17" fill="none" xmlns="http://www.w3.org/2000/svg">
<path d="M8.66354 16.3271C12.896 16.3271 16.3271 12.896 16.3271 8.66352C16.3271 4.43106 12.896 1 8.66354 1C4.43108 1 1 4.43106 1 8.66352C1 12.896 4.43108 16.3271 8.66354 16.3271Z" stroke="#7CDDBD"/>
<path d="M1.7666 11.3408C2.77509 11.7452 3.50109 11.7452 3.94454 11.3408C4.60974 10.7342 4.03574 8.89315 4.96735 8.3854C5.89893 7.87765 7.3183 10.1284 8.64493 9.38779C9.97153 8.64719 8.51994 6.67245 9.44056 5.87188C10.3612 5.07131 11.5583 5.97419 11.7676 4.63556C11.9768 3.29694 10.7912 3.87752 10.5637 2.61255C10.412 1.76924 10.412 1.32581 10.5637 1.28223" stroke="#7CDDBD" stroke-linecap="round"/>
<path d="M10.5876 16.0787C9.86952 15.3438 9.61099 14.6607 9.81208 14.0293C10.1137 13.0822 10.6113 13.1382 10.8282 12.5526C11.0451 11.967 10.4323 11.133 11.7921 10.42C12.6986 9.9447 13.9451 10.4954 15.5313 12.0722" stroke="#7CDDBD" stroke-linecap="round"/>
</svg>
