<svg viewBox="0 0 19 18" fill="none" xmlns="http://www.w3.org/2000/svg">
<path d="M12.3345 8.05571V8.06516M3.05308 5.57929C2.63883 5.26091 2.32068 4.8342 2.13378 4.3463C1.94689 3.85841 1.89853 3.32835 1.99405 2.81469C2.08957 2.30103 2.32526 1.82379 2.67505 1.43571C3.02485 1.04762 3.47514 0.763808 3.97615 0.615635C4.47716 0.467462 5.00938 0.4607 5.514 0.596094C6.01861 0.731489 6.47597 1.00377 6.83551 1.38284C7.19506 1.76191 7.44279 2.23301 7.55133 2.74408C7.65988 3.25514 7.625 3.78626 7.45057 4.27875" stroke="#7CDDBD" stroke-linecap="round" stroke-linejoin="round"/>
<path d="M13.2791 1.44458V5.03643C14.448 5.71279 15.338 6.78319 15.7895 8.05592H17.0561C17.3066 8.05592 17.5468 8.15543 17.7239 8.33255C17.9011 8.50968 18.0006 8.74991 18.0006 9.0004V10.8894C18.0006 11.1398 17.9011 11.3801 17.7239 11.5572C17.5468 11.7343 17.3066 11.8338 17.0561 11.8338H15.7886C15.4713 12.7311 14.932 13.5339 14.2227 14.1695V16.084C14.2227 16.4597 14.0734 16.8201 13.8077 17.0858C13.542 17.3514 13.1817 17.5007 12.8059 17.5007C12.4302 17.5007 12.0699 17.3514 11.8042 17.0858C11.5385 16.8201 11.3892 16.4597 11.3892 16.084V15.5334C11.0771 15.5856 10.7612 15.6119 10.4447 15.6117H6.66683C6.35038 15.6119 6.03446 15.5856 5.72236 15.5334V16.084C5.72236 16.4597 5.5731 16.8201 5.30741 17.0858C5.04172 17.3514 4.68138 17.5007 4.30564 17.5007C3.9299 17.5007 3.56956 17.3514 3.30387 17.0858C3.03819 16.8201 2.88892 16.4597 2.88892 16.084V14.195L2.88987 14.1695C2.0342 13.4045 1.431 12.3977 1.1601 11.2824C0.8892 10.167 0.963378 8.99568 1.37281 7.9234C1.78225 6.85113 2.50764 5.92846 3.45298 5.27751C4.39833 4.62656 5.51905 4.27802 6.66683 4.27801H9.02803L13.2782 1.44458H13.2791Z" stroke="#7CDDBD" stroke-linecap="round" stroke-linejoin="round"/>
</svg>
