<svg viewBox="0 0 19 17" fill="none" xmlns="http://www.w3.org/2000/svg">
<path d="M18.7889 0.467404L18.3784 3.649C17.3749 3.58058 16.5994 3.76304 16.052 4.19638C15.5047 4.62971 15.1398 5.23411 14.9573 6.00955C14.7748 6.78499 14.7406 7.66307 14.8547 8.64378H18.7889V16.8886H11.2283V7.95956C11.2283 5.26831 11.8669 3.23848 13.1441 1.87005C14.4441 0.478808 16.3257 0.0112605 18.7889 0.467404ZM8.25199 0.467404L7.84146 3.649C6.83794 3.58058 6.0625 3.76304 5.51513 4.19638C4.96775 4.62971 4.60284 5.23411 4.42038 6.00955C4.23792 6.78499 4.20371 7.66307 4.31775 8.64378H8.25199V16.8886H0.691406V7.95956C0.691406 5.26831 1.33001 3.23848 2.60721 1.87005C3.90722 0.478808 5.78881 0.0112605 8.25199 0.467404Z" fill="white"/>
</svg>
