<svg viewBox="0 0 41 39" fill="none" xmlns="http://www.w3.org/2000/svg">
<path d="M39.0796 25.8719C39.4977 25.7214 39.8657 25.4576 40.1424 25.1099C40.4192 24.7622 40.5937 24.3444 40.6465 23.9032C40.6993 23.4619 40.6284 23.0147 40.4415 22.6115C40.2547 22.2084 39.9594 21.8651 39.5886 21.6202L8.29061 0.989404C7.90257 0.733453 7.44841 0.595968 6.98356 0.593722C6.5187 0.591475 6.06324 0.724566 5.67274 0.976756C5.28223 1.22895 4.97357 1.58933 4.78439 2.01396C4.59521 2.43858 4.5337 2.90909 4.60736 3.36807L6.58201 15.6644C6.66466 16.1783 6.9125 16.6514 7.28802 17.0118C7.66354 17.3723 8.14629 17.6007 8.66317 17.6622L19.5326 18.9635C20.1632 19.039 20.7381 19.3619 21.1306 19.8613C21.5232 20.3606 21.7013 20.9954 21.6258 21.6261C21.5503 22.2567 21.2274 22.8316 20.728 23.2241C20.2287 23.6167 19.5939 23.7948 18.9632 23.7193L8.09382 22.418C7.57701 22.3559 7.054 22.4638 6.60401 22.7255C6.15401 22.9871 5.80151 23.3883 5.59989 23.8682L0.780867 35.3512C0.600711 35.7796 0.549122 36.2513 0.632396 36.7085C0.715671 37.1658 0.930209 37.589 1.24984 37.9264C1.56948 38.2639 1.9804 38.501 2.43249 38.6089C2.88458 38.7168 3.35831 38.6909 3.79589 38.5342L39.0793 25.8743L39.0796 25.8719Z" fill="#7CDDBD"/>
</svg>
