<svg viewBox="0 0 16 17" fill="none" xmlns="http://www.w3.org/2000/svg">
<path d="M15.5288 6.84648L13.7455 6.52465C13.6446 6.18498 13.51 5.86328 13.3586 5.54145L14.4016 3.98629C14.553 3.75387 14.5362 3.43217 14.3512 3.23551L12.921 1.716C12.736 1.51936 12.4332 1.48358 12.2144 1.66238L10.7507 2.77065C10.4647 2.6098 10.1451 2.46678 9.82538 2.35954L9.53938 0.482678C9.48892 0.196637 9.27017 0 9.00095 0H6.98206C6.71285 0 6.49422 0.19664 6.44363 0.482678L6.14085 2.37748C5.82116 2.48472 5.51838 2.62773 5.21549 2.78859L3.7518 1.68032C3.53305 1.51947 3.23028 1.5373 3.04518 1.73394L1.61506 3.25345C1.42999 3.45009 1.39631 3.77178 1.5646 4.00423L2.60767 5.55939C2.45628 5.86326 2.32167 6.20292 2.22074 6.54259L0.454285 6.84647C0.18507 6.90008 0 7.13251 0 7.41855V9.56362C0 9.84966 0.185073 10.082 0.454285 10.1357L2.23763 10.4574C2.33856 10.7971 2.47316 11.1188 2.62456 11.4406L1.58148 12.9958C1.43009 13.2282 1.44687 13.5499 1.63195 13.7466L3.06207 15.2661C3.24714 15.4627 3.54991 15.4985 3.76869 15.3197L5.23237 14.2114C5.51837 14.3723 5.83804 14.5153 6.15773 14.6225L6.46051 16.5173C6.51097 16.8034 6.72973 17 6.99895 17H9.01783C9.28705 17 9.50567 16.8034 9.55627 16.5173L9.84226 14.6045C10.162 14.4973 10.4647 14.3543 10.7676 14.1934L12.2313 15.3017C12.4501 15.4626 12.7528 15.4447 12.9379 15.2481L14.3681 13.7286C14.5531 13.5319 14.5868 13.2102 14.4185 12.9778L13.3754 11.4226C13.5268 11.1188 13.6614 10.7791 13.7624 10.4394L15.5457 10.1177C15.8149 10.0641 16 9.83169 16 9.54565L15.9999 7.41839C15.9831 7.13248 15.798 6.90006 15.5288 6.84643L15.5288 6.84648ZM7.99156 11.5478C6.39328 11.5478 5.11455 10.1713 5.11455 8.49099C5.11455 6.79282 6.41005 5.43417 7.99156 5.43417C9.57307 5.43417 10.8686 6.79279 10.8686 8.49099C10.8686 10.1892 9.58986 11.5478 7.99156 11.5478Z" fill="currentColor"/>
</svg>
