<svg width="36" height="38" viewBox="0 0 36 38" fill="none" xmlns="http://www.w3.org/2000/svg">
<path d="M28.231 19H8.76899C8.51682 19 8.26465 18.8434 8.11342 18.5824C7.96219 18.3213 7.96219 18.0602 8.11342 17.7996L17.8444 0.365561C17.9957 0.104498 18.2478 0 18.5 0C18.7522 0 19.0043 0.156565 19.1556 0.365561L28.8866 17.7996C29.0378 18.0606 29.0378 18.3217 28.8866 18.5824C28.7357 18.8434 28.4835 19 28.2314 19H28.231ZM10.0799 17.434H26.9201L18.5 2.34887L10.0799 17.434Z" fill="#7CDDBD"/>
<path d="M35.2297 37.9996H19.7703C19.3593 37.9996 19 37.6188 19 37.1841V20.8156C19 20.3805 19.3597 20 19.7703 20H35.2297C35.6407 20 36 20.3808 36 20.8156V37.1841C36.0004 37.6195 35.641 38 35.2301 38L35.2297 37.9996ZM20.5407 36.3681H34.4593L34.459 21.631H20.5403L20.5407 36.3681Z" fill="#7CDDBD"/>
<path d="M8.5 38C3.81193 38 0 33.9635 0 29C0 24.0362 3.8123 20 8.5 20C13.1881 20 17 24.0365 17 29C17.0004 33.9635 13.188 38 8.5 38ZM8.5 21.636C4.6877 21.636 1.54512 24.9634 1.54512 29C1.54512 33.0365 4.68761 36.364 8.5 36.364C12.3124 36.364 15.4549 33.0366 15.4549 29C15.4549 24.9635 12.3124 21.636 8.5 21.636Z" fill="#7CDDBD"/>
</svg>
