<svg width="57" height="57" viewBox="0 0 57 57" fill="none" xmlns="http://www.w3.org/2000/svg">
<circle cx="28.5" cy="28.5" r="28.5" fill="#1D1F42"/>
<path d="M37.7889 18.4678L37.3784 21.6494C36.3749 21.581 35.5994 21.7634 35.052 22.1967C34.5047 22.6301 34.1398 23.2345 33.9573 24.0099C33.7748 24.7854 33.7406 25.6634 33.8547 26.6441H37.7889V34.8889H30.2283V25.9599C30.2283 23.2687 30.8669 21.2388 32.1441 19.8704C33.4441 18.4792 35.3257 18.0116 37.7889 18.4678ZM27.252 18.4678L26.8415 21.6494C25.8379 21.581 25.0625 21.7634 24.5151 22.1967C23.9678 22.6301 23.6028 23.2345 23.4204 24.0099C23.2379 24.7854 23.2037 25.6634 23.3177 26.6441H27.252V34.8889H19.6914V25.9599C19.6914 23.2687 20.33 21.2388 21.6072 19.8704C22.9072 18.4792 24.7888 18.0116 27.252 18.4678Z" fill="white"/>
</svg>
