<svg viewBox="0 0 19 19" fill="none" xmlns="http://www.w3.org/2000/svg">
<path d="M2.375 4.75H3.95833H16.625" stroke="#FF927D" stroke-width="1.4" stroke-linecap="round" stroke-linejoin="round"/>
<path d="M15.0418 4.74992V15.8333C15.0418 16.2532 14.875 16.6559 14.5781 16.9528C14.2811 17.2498 13.8784 17.4166 13.4585 17.4166H5.54183C5.1219 17.4166 4.71918 17.2498 4.42224 16.9528C4.12531 16.6559 3.9585 16.2532 3.9585 15.8333V4.74992M6.3335 4.74992V3.16659C6.3335 2.74666 6.50031 2.34393 6.79724 2.047C7.09418 1.75007 7.4969 1.58325 7.91683 1.58325H11.0835C11.5034 1.58325 11.9061 1.75007 12.2031 2.047C12.5 2.34393 12.6668 2.74666 12.6668 3.16659V4.74992" stroke="#FF927D" stroke-width="1.4" stroke-linecap="round" stroke-linejoin="round"/>
</svg>
