<svg width="14" height="14" viewBox="0 0 14 14" fill="none" xmlns="http://www.w3.org/2000/svg">
<path d="M9.69311 7.82311L12.7177 9.19792C13.4986 9.55289 14 10.3315 14 11.1893V11.8125C14 13.0206 13.0206 14 11.8125 14H2.1875C0.979377 14 0 13.0206 0 11.8125V11.1893C0 10.3315 0.501381 9.55289 1.28231 9.19792L4.30689 7.82311C3.28308 7.02234 2.625 5.77552 2.625 4.375C2.625 1.95875 4.58375 0 7 0C9.41625 0 11.375 1.95875 11.375 4.375C11.375 5.77552 10.7169 7.02234 9.69311 7.82311ZM5.21611 8.37098L1.64438 9.99449C1.17583 10.2075 0.875 10.6747 0.875 11.1893V11.8125C0.875 12.5374 1.46263 13.125 2.1875 13.125H11.8125C12.5374 13.125 13.125 12.5374 13.125 11.8125V11.1893C13.125 10.6747 12.8242 10.2075 12.3556 9.99449L8.78389 8.37098C8.23909 8.61456 7.63536 8.75 7 8.75C6.36464 8.75 5.76091 8.61456 5.21611 8.37098V8.37098ZM7 7.875C8.933 7.875 10.5 6.308 10.5 4.375C10.5 2.442 8.933 0.875 7 0.875C5.067 0.875 3.5 2.442 3.5 4.375C3.5 6.308 5.067 7.875 7 7.875Z" fill="#7CDDBD"/>
</svg>
